<svg id="Layer_1" height="512" viewBox="0 0 512 512" width="512" xmlns="http://www.w3.org/2000/svg" data-name="Layer 1"><path d="m201 351.924a150.676 150.676 0 0 0 92.363-31.459l14.974 14.975-7.76 7.761a6 6 0 0 0 0 8.485l99.723 99.729a36.142 36.142 0 1 0 51.115-51.115l-99.729-99.728a6 6 0 0 0 -8.485 0l-7.761 7.76-14.975-14.974c45.82-59.179 41.588-144.851-12.7-199.135-58.865-58.871-154.665-58.871-213.539.003s-58.874 154.669 0 213.543a150.529 150.529 0 0 0 106.774 44.155zm241.931 56.865a24.141 24.141 0 0 1 -34.14 34.14l-66.316-66.316 34.14-34.14zm-95.488-95.489 20.685 20.684-34.141 34.141-20.687-20.682zm-20.488 3.518-10.134 10.134-14.242-14.242q2.637-2.4 5.19-4.944t4.944-5.19zm-224.244-214.107a139.157 139.157 0 0 1 196.573 0c54.195 54.2 54.195 142.377 0 196.573s-142.377 54.195-196.573 0-54.195-142.377 0-196.573z"/><path d="m114.806 169.826a6 6 0 0 0 -7.466 4.032 102.761 102.761 0 0 0 7.485 76.811 6 6 0 0 0 10.611-5.606 90.662 90.662 0 0 1 -6.6-67.771 6 6 0 0 0 -4.03-7.466z"/><path d="m128.005 156.613c1.4-2.3 2.915-4.571 4.515-6.737a6 6 0 1 0 -9.653-7.128c-1.816 2.459-3.54 5.031-5.124 7.646a6 6 0 1 0 10.262 6.219z"/><path d="m201.035 324.931a123.735 123.735 0 0 0 87.732-36.258c48.344-48.344 48.4-127.006.056-175.351a122.27 122.27 0 0 0 -57.385-32.57 6 6 0 0 0 -7.438 5.828v.048a6.012 6.012 0 0 0 4.544 5.812 113.689 113.689 0 0 1 51.794 29.368c43.665 43.665 43.59 114.714-.075 158.38a112.166 112.166 0 0 1 -158.418 0c-43.665-43.666-43.533-114.715.132-158.38a109.907 109.907 0 0 1 66.623-32.043 6 6 0 1 0 -1.262-11.926 122.08 122.08 0 0 0 -73.865 35.483c-48.344 48.345-48.419 127.007-.076 175.351a123.524 123.524 0 0 0 87.638 36.258z"/></svg>